<svg id="svg" version="1.1" xmlns="http://www.w3.org/2000/svg" xmlns:xlink="http://www.w3.org/1999/xlink" width="400" height="400" viewBox="0, 0, 400,400"><g id="svgg"><path id="path0" d="M0.000 200.000 L 0.000 400.000 200.000 400.000 L 400.000 400.000 400.000 200.000 L 400.000 0.000 200.000 0.000 L 0.000 0.000 0.000 200.000 M193.125 171.089 C 193.125 171.172,192.694 171.940,192.168 172.796 C 187.019 181.164,190.262 192.304,199.696 198.657 C 201.796 200.072,209.338 203.701,212.500 204.819 C 223.316 208.644,229.375 214.793,229.375 221.947 C 229.375 225.477,222.168 231.672,214.531 234.707 C 213.156 235.253,211.539 235.947,210.938 236.248 C 208.409 237.513,208.438 237.529,208.438 234.765 C 208.438 228.059,204.603 223.398,194.688 218.051 C 185.109 212.885,180.212 207.915,177.594 200.702 C 174.567 192.362,175.872 181.316,180.348 177.401 C 183.744 174.430,193.125 169.796,193.125 171.089 M205.663 174.693 C 208.194 175.396,210.459 178.152,210.941 181.116 C 212.139 188.479,202.771 192.944,197.860 187.351 C 192.572 181.328,197.978 172.558,205.663 174.693 M176.653 182.266 C 171.868 196.050,177.710 209.857,191.594 217.574 C 199.435 221.933,202.341 224.026,204.511 226.882 C 206.647 229.694,207.262 231.353,207.305 234.425 C 207.353 237.812,207.596 237.635,202.725 237.767 C 174.736 238.526,158.007 208.711,173.288 185.303 C 175.911 181.284,177.488 179.860,176.653 182.266 " stroke="none" fill="#e3fbfb" fill-rule="evenodd"></path><path id="path1" d="M189.688 172.056 C 179.424 176.457,176.190 181.053,176.176 191.250 C 176.161 202.654,181.806 210.793,194.531 217.715 C 204.550 223.164,208.388 227.531,208.694 233.828 C 208.767 235.332,208.876 236.563,208.936 236.563 C 209.281 236.563,214.337 234.429,216.874 233.213 C 219.587 231.912,224.550 228.508,224.217 228.175 C 224.140 228.099,223.863 228.214,223.601 228.431 C 223.339 228.649,223.125 228.691,223.125 228.526 C 223.125 228.361,223.477 228.065,223.906 227.869 C 224.426 227.633,224.688 227.622,224.688 227.838 C 224.688 228.016,224.843 228.066,225.033 227.948 C 225.277 227.798,225.260 227.661,224.975 227.485 C 224.673 227.298,224.660 227.129,224.923 226.812 C 225.141 226.549,225.237 225.368,225.177 223.689 C 225.080 220.984,224.844 220.208,223.054 216.719 C 221.419 213.530,216.534 210.088,209.942 207.479 C 206.947 206.294,199.705 202.434,196.992 200.578 C 195.786 199.752,190.938 194.961,190.938 194.595 C 190.938 194.489,190.544 193.728,190.063 192.904 C 187.426 188.388,186.449 181.228,188.152 178.906 C 188.278 178.734,188.483 178.031,188.606 177.344 C 188.817 176.170,190.578 172.974,190.859 173.254 C 190.929 173.325,190.758 173.734,190.477 174.163 C 190.139 174.678,190.078 175.011,190.296 175.146 C 190.477 175.258,190.625 175.125,190.625 174.851 C 190.625 174.577,190.841 174.024,191.104 173.622 C 192.346 171.727,191.817 171.143,189.688 172.056 M200.065 175.192 C 193.160 178.707,195.668 189.358,203.403 189.372 C 206.105 189.377,209.625 187.112,210.229 184.980 C 211.021 182.185,209.668 176.583,208.391 177.372 C 208.236 177.468,208.148 177.375,208.195 177.166 C 208.578 175.471,202.443 173.982,200.065 175.192 M189.896 175.833 C 189.781 175.948,189.700 176.405,189.714 176.849 C 189.741 177.642,189.746 177.640,190.017 176.734 C 190.301 175.783,190.259 175.470,189.896 175.833 M189.058 178.516 C 189.056 178.730,188.969 179.223,188.866 179.609 C 188.762 179.996,188.805 180.313,188.962 180.313 C 189.119 180.313,189.280 179.820,189.321 179.219 C 189.361 178.617,189.320 178.125,189.229 178.125 C 189.137 178.125,189.061 178.301,189.058 178.516 M189.577 186.639 C 189.468 187.057,189.579 187.525,189.853 187.799 C 190.257 188.204,190.313 188.192,190.313 187.705 C 190.313 187.400,190.166 187.241,189.987 187.351 C 189.777 187.482,189.734 187.269,189.865 186.745 C 189.977 186.301,189.999 185.938,189.914 185.938 C 189.830 185.938,189.678 186.253,189.577 186.639 M190.327 188.646 C 190.319 188.847,190.229 189.269,190.127 189.584 C 189.981 190.033,190.009 190.061,190.256 189.712 C 190.505 189.362,190.677 189.521,191.071 190.463 C 191.346 191.121,191.649 191.580,191.744 191.485 C 191.840 191.389,191.563 190.629,191.130 189.796 C 190.696 188.963,190.335 188.446,190.327 188.646 M192.197 192.440 C 192.192 192.837,192.316 193.082,192.473 192.985 C 192.631 192.888,192.830 192.985,192.917 193.201 C 193.004 193.417,193.087 193.445,193.100 193.263 C 193.114 193.081,192.919 192.659,192.666 192.325 C 192.220 191.735,192.207 191.739,192.197 192.440 M193.750 194.498 C 193.750 194.737,193.964 195.015,194.226 195.116 C 194.614 195.265,194.641 195.185,194.371 194.680 C 193.984 193.956,193.750 193.887,193.750 194.498 M195.864 196.572 C 196.426 197.082,197.028 197.500,197.203 197.500 C 197.378 197.500,197.041 197.078,196.454 196.563 C 195.068 195.346,194.526 195.354,195.864 196.572 M197.921 198.375 C 198.238 198.731,198.942 199.170,199.483 199.351 C 200.661 199.743,199.977 199.097,198.281 198.215 L 197.344 197.727 197.921 198.375 M201.901 200.744 C 202.220 201.034,205.313 202.494,205.313 202.354 C 205.313 202.178,202.328 200.625,201.990 200.625 C 201.869 200.625,201.829 200.678,201.901 200.744 M206.875 203.281 C 207.305 203.527,207.797 203.728,207.969 203.728 C 208.141 203.728,207.930 203.527,207.500 203.281 C 207.070 203.036,206.578 202.835,206.406 202.835 C 206.234 202.835,206.445 203.036,206.875 203.281 M218.587 208.135 C 218.485 208.302,218.587 208.438,218.815 208.438 C 219.043 208.438,219.766 208.802,220.421 209.247 C 221.075 209.691,221.678 209.989,221.759 209.908 C 221.840 209.827,221.202 209.327,220.340 208.797 C 219.458 208.254,218.693 207.965,218.587 208.135 M222.517 210.523 C 222.527 210.665,222.949 211.108,223.455 211.508 C 223.961 211.908,224.367 212.119,224.358 211.977 C 224.348 211.835,223.926 211.392,223.420 210.992 C 222.914 210.592,222.508 210.381,222.517 210.523 M225.830 214.517 C 225.714 214.819,225.808 214.910,226.113 214.793 C 226.428 214.672,226.512 214.767,226.386 215.097 C 226.273 215.390,226.445 215.708,226.826 215.911 C 227.426 216.233,227.432 216.211,226.986 215.316 C 226.417 214.174,226.057 213.926,225.830 214.517 M227.637 217.522 C 227.803 219.580,227.786 219.527,228.174 219.138 C 228.448 218.864,228.442 218.663,228.147 218.308 C 227.934 218.051,227.832 217.722,227.921 217.577 C 228.011 217.432,227.964 217.120,227.817 216.882 C 227.644 216.603,227.581 216.830,227.637 217.522 M228.438 221.075 C 228.438 221.495,228.553 221.909,228.693 221.996 C 228.834 222.083,228.889 221.740,228.814 221.233 C 228.650 220.117,228.438 220.027,228.438 221.075 M228.274 223.516 L 227.782 224.531 228.422 223.794 C 228.774 223.388,229.063 222.931,229.063 222.778 C 229.063 222.232,228.758 222.516,228.274 223.516 " stroke="none" fill="#1767ac" fill-rule="evenodd"></path><path id="path2" d="M174.735 183.491 C 164.687 196.152,165.548 215.533,176.674 227.123 C 183.961 234.715,196.580 239.280,205.612 237.591 C 210.767 236.628,204.586 224.134,197.354 220.899 C 197.005 220.742,196.156 220.292,195.469 219.899 C 194.781 219.505,193.375 218.715,192.344 218.142 C 178.449 210.430,172.344 197.982,175.886 184.584 C 176.796 181.142,176.684 181.035,174.735 183.491 " stroke="none" fill="#7fda59" fill-rule="evenodd"></path><path id="path3" d="M188.964 175.836 C 188.596 177.185,188.436 178.125,188.576 178.125 C 188.795 178.125,189.443 175.589,189.268 175.414 C 189.186 175.332,189.049 175.522,188.964 175.836 M187.992 179.141 C 186.693 183.631,187.403 188.347,190.063 192.904 C 190.544 193.728,190.938 194.489,190.938 194.595 C 190.938 194.961,195.786 199.752,196.992 200.578 C 199.705 202.434,206.947 206.294,209.942 207.479 C 220.004 211.461,225.373 217.054,226.010 224.219 C 226.065 224.830,226.246 225.124,226.530 225.063 C 226.875 224.989,226.858 225.135,226.452 225.755 C 225.803 226.746,225.793 227.071,226.429 226.544 C 227.161 225.936,228.014 224.015,227.947 223.125 C 227.787 221.007,227.189 218.070,226.758 217.285 C 226.492 216.802,226.115 216.020,225.919 215.547 C 225.724 215.074,225.437 214.688,225.282 214.688 C 225.127 214.688,225.035 214.564,225.078 214.413 C 225.121 214.262,224.712 213.710,224.169 213.187 C 223.625 212.664,223.262 212.154,223.361 212.055 C 223.461 211.956,223.383 211.875,223.189 211.875 C 222.995 211.875,222.585 211.614,222.278 211.295 C 221.970 210.976,220.945 210.203,220.000 209.577 C 219.055 208.952,218.118 208.304,217.917 208.139 C 217.717 207.973,217.190 207.747,216.746 207.635 C 216.301 207.524,215.938 207.237,215.938 206.997 C 215.938 206.758,215.691 206.565,215.391 206.567 C 214.923 206.571,214.912 206.616,215.313 206.875 C 215.570 207.042,215.623 207.180,215.429 207.183 C 215.235 207.185,214.901 206.977,214.688 206.719 C 214.474 206.461,214.103 206.250,213.864 206.250 C 213.625 206.250,213.185 206.116,212.886 205.951 C 212.588 205.787,211.535 205.431,210.547 205.161 C 209.325 204.827,208.750 204.512,208.750 204.177 C 208.750 203.865,208.576 203.750,208.278 203.864 C 207.750 204.067,206.250 203.483,206.250 203.075 C 206.250 202.931,205.962 202.813,205.610 202.813 C 204.758 202.813,199.483 200.018,197.324 198.423 C 191.367 194.022,188.042 187.840,188.231 181.518 C 188.309 178.890,188.246 178.262,187.992 179.141 " stroke="none" fill="#9e4fa1" fill-rule="evenodd"></path><path id="path4" d="M191.406 171.250 C 190.896 171.469,190.878 171.523,191.310 171.541 C 191.934 171.566,191.842 172.496,191.104 173.622 C 190.841 174.024,190.625 174.577,190.625 174.851 C 190.625 175.125,190.477 175.258,190.296 175.146 C 190.078 175.011,190.139 174.678,190.477 174.163 C 190.758 173.734,190.923 173.319,190.845 173.241 C 190.416 172.812,189.161 175.917,188.429 179.219 C 188.036 180.994,188.045 184.355,188.442 183.750 C 188.665 183.410,188.701 183.539,188.573 184.219 C 188.310 185.614,189.805 190.118,190.203 189.130 C 190.473 188.458,190.532 188.502,191.197 189.871 C 191.586 190.671,191.829 191.400,191.737 191.492 C 191.646 191.584,191.346 191.121,191.071 190.463 C 190.727 189.639,190.495 189.393,190.323 189.670 C 189.190 191.504,200.043 201.914,201.895 200.769 C 202.165 200.602,205.313 202.062,205.313 202.354 C 205.313 202.440,204.595 202.147,203.719 201.703 C 202.842 201.259,202.055 200.966,201.969 201.052 C 201.694 201.327,204.946 202.812,205.849 202.824 C 206.327 202.830,207.070 203.050,207.500 203.314 C 208.245 203.771,208.158 203.768,206.719 203.290 C 206.294 203.148,206.344 203.234,206.875 203.558 C 207.305 203.821,207.902 203.961,208.203 203.872 C 208.558 203.765,208.750 203.877,208.750 204.189 C 208.750 204.509,209.350 204.834,210.547 205.161 C 211.535 205.431,212.592 205.789,212.894 205.956 C 213.197 206.123,213.830 206.176,214.301 206.073 C 214.864 205.951,215.018 205.985,214.751 206.174 C 214.425 206.405,214.442 206.542,214.837 206.869 C 215.107 207.093,215.418 207.186,215.528 207.076 C 215.639 206.965,215.565 206.875,215.365 206.875 C 215.164 206.875,215.000 206.737,215.000 206.569 C 215.000 206.384,215.312 206.405,215.790 206.623 C 216.282 206.848,216.448 207.065,216.229 207.200 C 215.751 207.496,217.293 207.863,218.022 207.626 C 218.508 207.469,218.524 207.496,218.125 207.807 C 217.791 208.068,217.763 208.216,218.027 208.324 C 218.888 208.677,222.188 211.045,222.188 211.310 C 222.188 211.469,222.293 211.536,222.422 211.457 C 222.551 211.379,222.838 211.512,223.059 211.752 C 223.281 211.991,223.388 212.188,223.296 212.188 C 223.205 212.188,223.586 212.626,224.143 213.163 C 224.700 213.700,225.121 214.262,225.078 214.413 C 225.035 214.564,225.211 214.688,225.469 214.688 C 225.727 214.688,225.938 214.539,225.938 214.357 C 225.938 213.815,226.490 214.321,226.986 215.316 C 227.432 216.211,227.426 216.233,226.826 215.911 C 226.472 215.722,226.276 215.384,226.372 215.132 C 226.466 214.888,226.415 214.688,226.259 214.688 C 225.726 214.688,225.662 215.190,226.099 215.955 C 227.159 217.809,227.927 220.889,227.885 223.110 L 227.871 223.876 228.460 223.110 C 228.784 222.689,229.052 222.500,229.056 222.691 C 229.059 222.883,228.676 223.546,228.203 224.165 C 227.730 224.784,227.084 225.657,226.766 226.104 C 226.020 227.155,225.717 226.877,226.427 225.793 C 226.844 225.157,226.867 224.991,226.530 225.063 C 226.235 225.126,226.063 224.803,225.997 224.063 C 225.860 222.499,224.766 219.017,224.182 218.281 C 223.528 217.459,223.854 218.786,224.593 219.955 C 225.875 221.985,225.263 227.488,223.699 227.985 C 223.338 228.099,223.149 228.362,223.246 228.614 C 223.495 229.264,220.294 231.574,216.875 233.213 C 214.337 234.429,209.281 236.563,208.936 236.563 C 208.876 236.563,208.767 235.332,208.694 233.828 C 208.621 232.324,208.382 230.813,208.163 230.469 L 207.765 229.844 207.992 230.469 C 208.117 230.813,208.285 232.469,208.365 234.150 C 208.528 237.571,208.439 237.498,210.938 236.248 C 211.539 235.947,213.156 235.253,214.531 234.707 C 222.168 231.672,229.375 225.477,229.375 221.947 C 229.375 218.574,226.143 211.637,224.923 212.391 C 224.737 212.506,224.682 212.450,224.798 212.262 C 225.447 211.211,218.236 206.847,212.500 204.819 C 211.211 204.364,208.136 203.025,205.666 201.844 C 203.196 200.663,201.048 199.775,200.892 199.872 C 200.737 199.968,200.648 199.899,200.695 199.718 C 200.743 199.537,200.162 198.975,199.406 198.468 C 195.666 195.965,191.955 191.271,190.749 187.522 C 190.314 186.168,190.156 185.947,189.968 186.428 C 189.631 187.288,189.641 187.566,190.000 187.344 C 190.172 187.238,190.313 187.387,190.313 187.676 C 190.313 188.111,190.231 188.134,189.837 187.807 C 189.527 187.549,189.437 187.182,189.580 186.753 C 189.701 186.390,189.814 184.266,189.832 182.031 C 189.868 177.555,190.307 175.821,192.168 172.796 C 193.395 170.802,193.229 170.467,191.406 171.250 M200.733 174.614 C 200.535 174.740,201.542 174.844,202.972 174.844 C 205.657 174.844,208.440 176.081,208.195 177.166 C 208.148 177.375,208.236 177.468,208.391 177.372 C 209.648 176.596,211.033 182.220,210.245 184.899 C 208.762 189.939,200.935 190.986,197.578 186.593 C 197.020 185.862,196.563 185.390,196.563 185.544 C 196.563 187.275,200.630 189.797,203.438 189.807 C 210.652 189.832,213.752 181.130,208.252 176.289 C 206.338 174.605,202.197 173.682,200.733 174.614 M198.865 175.638 C 197.708 176.379,196.341 178.338,196.112 179.584 C 195.989 180.251,196.040 180.200,196.320 179.375 C 196.524 178.773,197.426 177.543,198.325 176.641 C 199.224 175.738,199.933 175.002,199.901 175.005 C 199.870 175.008,199.403 175.293,198.865 175.638 M181.082 176.807 C 179.413 178.152,177.807 180.270,177.832 181.094 C 177.837 181.266,178.191 180.735,178.618 179.914 C 179.109 178.970,180.082 177.888,181.260 176.973 C 182.941 175.668,183.320 175.313,183.031 175.313 C 182.980 175.313,182.103 175.985,181.082 176.807 M190.017 176.734 C 189.746 177.640,189.741 177.642,189.714 176.849 C 189.700 176.405,189.781 175.948,189.896 175.833 C 190.259 175.470,190.301 175.783,190.017 176.734 M189.321 179.219 C 189.280 179.820,189.119 180.313,188.962 180.313 C 188.805 180.313,188.762 179.996,188.866 179.609 C 188.969 179.223,189.056 178.730,189.058 178.516 C 189.061 178.301,189.137 178.125,189.229 178.125 C 189.320 178.125,189.361 178.617,189.321 179.219 M175.762 181.952 C 175.016 182.776,174.995 182.834,175.648 182.262 C 176.091 181.874,176.530 181.634,176.625 181.729 C 176.720 181.824,176.881 181.685,176.983 181.420 C 177.285 180.631,176.742 180.868,175.762 181.952 M195.942 183.620 C 195.945 183.949,196.090 184.430,196.264 184.688 C 196.496 185.030,196.525 184.903,196.372 184.219 C 196.115 183.070,195.936 182.820,195.942 183.620 M176.027 188.906 C 176.029 189.766,176.090 190.080,176.162 189.605 C 176.234 189.130,176.232 188.427,176.157 188.043 C 176.083 187.658,176.025 188.047,176.027 188.906 M193.100 193.263 C 193.087 193.445,193.004 193.417,192.917 193.201 C 192.830 192.985,192.631 192.888,192.473 192.985 C 192.316 193.082,192.192 192.837,192.197 192.440 C 192.207 191.739,192.220 191.735,192.666 192.325 C 192.919 192.659,193.114 193.081,193.100 193.263 M176.023 193.750 C 176.023 194.523,176.084 194.840,176.158 194.453 C 176.233 194.066,176.233 193.434,176.158 193.047 C 176.084 192.660,176.023 192.977,176.023 193.750 M194.371 194.680 C 194.641 195.185,194.614 195.265,194.226 195.116 C 193.964 195.015,193.750 194.737,193.750 194.498 C 193.750 193.887,193.984 193.956,194.371 194.680 M196.454 196.563 C 197.041 197.078,197.378 197.500,197.203 197.500 C 196.811 197.500,194.737 195.647,195.115 195.634 C 195.264 195.629,195.867 196.047,196.454 196.563 M176.616 197.344 C 176.611 197.688,176.727 198.250,176.875 198.594 C 177.217 199.390,177.217 198.568,176.875 197.500 C 176.674 196.872,176.623 196.841,176.616 197.344 M199.844 199.191 C 200.432 199.650,200.410 199.659,199.483 199.351 C 198.942 199.170,198.238 198.731,197.921 198.375 L 197.344 197.727 198.281 198.215 C 198.797 198.483,199.500 198.922,199.844 199.191 M177.695 200.938 C 177.933 201.870,179.630 205.313,179.853 205.313 C 179.939 205.313,179.612 204.504,179.126 203.516 C 178.641 202.527,178.076 201.367,177.870 200.938 L 177.497 200.156 177.695 200.938 M167.597 203.281 C 167.599 204.313,167.657 204.697,167.726 204.135 C 167.796 203.573,167.795 202.730,167.723 202.260 C 167.652 201.790,167.595 202.250,167.597 203.281 M180.529 206.607 C 180.840 207.147,182.078 208.601,183.281 209.838 C 184.705 211.302,184.860 211.423,183.725 210.184 C 182.766 209.138,181.587 207.684,181.105 206.953 C 180.084 205.404,179.708 205.179,180.529 206.607 M221.759 209.908 C 221.678 209.989,221.075 209.691,220.421 209.247 C 219.766 208.802,219.043 208.438,218.815 208.438 C 218.587 208.438,218.485 208.302,218.587 208.135 C 218.693 207.965,219.458 208.254,220.340 208.797 C 221.202 209.327,221.840 209.827,221.759 209.908 M224.375 211.958 C 224.375 212.290,222.542 210.889,222.517 210.538 C 222.508 210.403,222.922 210.606,223.438 210.987 C 223.953 211.368,224.375 211.805,224.375 211.958 M183.281 211.875 C 183.953 212.563,184.572 213.125,184.658 213.125 C 184.744 213.125,184.265 212.563,183.594 211.875 C 182.922 211.188,182.303 210.625,182.217 210.625 C 182.131 210.625,182.610 211.188,183.281 211.875 M186.922 213.190 C 187.550 213.756,188.534 214.471,189.110 214.779 C 190.116 215.318,190.127 215.318,189.383 214.779 C 188.958 214.471,187.973 213.756,187.195 213.190 L 185.781 212.161 186.922 213.190 M190.781 215.778 C 191.479 216.358,193.459 217.429,192.969 216.961 C 192.797 216.797,192.094 216.347,191.406 215.961 C 190.719 215.575,190.438 215.492,190.781 215.778 M227.921 217.577 C 227.832 217.722,227.934 218.051,228.147 218.308 C 228.442 218.663,228.448 218.864,228.174 219.138 C 227.786 219.527,227.803 219.580,227.637 217.522 C 227.581 216.830,227.644 216.603,227.817 216.882 C 227.964 217.120,228.011 217.432,227.921 217.577 M194.688 217.956 C 194.688 218.042,195.250 218.399,195.938 218.750 C 196.625 219.101,197.188 219.317,197.188 219.231 C 197.188 219.146,196.625 218.788,195.938 218.438 C 195.250 218.087,194.688 217.870,194.688 217.956 M228.814 221.233 C 228.889 221.740,228.834 222.083,228.693 221.996 C 228.443 221.841,228.320 220.313,228.558 220.313 C 228.625 220.313,228.740 220.727,228.814 221.233 M199.375 220.709 C 199.375 220.789,199.956 221.239,200.667 221.709 C 201.377 222.180,202.573 223.130,203.323 223.822 C 204.074 224.514,204.681 224.956,204.672 224.805 C 204.645 224.318,199.375 220.242,199.375 220.709 M203.112 225.547 C 203.692 226.277,204.223 226.875,204.292 226.875 C 204.513 226.875,203.174 225.117,202.605 224.660 C 202.303 224.417,202.531 224.816,203.112 225.547 M205.395 225.938 C 205.694 226.367,206.359 227.422,206.873 228.281 C 207.386 229.141,207.807 229.703,207.807 229.531 C 207.807 229.009,206.035 226.093,205.424 225.610 C 204.872 225.173,204.871 225.185,205.395 225.938 " stroke="none" fill="#8fb5da" fill-rule="evenodd"></path></g></svg>