<?xml version="1.0" standalone="no"?>
<!DOCTYPE svg PUBLIC "-//W3C//DTD SVG 20010904//EN"
 "http://www.w3.org/TR/2001/REC-SVG-20010904/DTD/svg10.dtd">
<svg version="1.0" xmlns="http://www.w3.org/2000/svg"
 width="1280.000000pt" height="1280.000000pt" viewBox="0 0 1280.000000 1280.000000"
 preserveAspectRatio="xMidYMid meet">

<g transform="translate(0.000000,1280.000000) scale(0.100000,-0.100000)"
fill="#000000" stroke="none">
<path d="M6110 7306 c-70 -18 -211 -93 -292 -155 -88 -68 -125 -129 -158 -264
-47 -192 -22 -414 66 -589 97 -194 212 -304 464 -444 247 -136 358 -222 423
-324 48 -76 67 -139 70 -226 1 -41 3 -74 3 -74 1 0 26 11 55 24 30 14 48 25
40 25 -23 1 -6 91 22 116 13 11 33 53 46 95 13 41 30 89 37 105 7 17 20 56 28
87 9 31 23 63 31 72 8 8 15 19 15 25 0 6 5 11 10 11 6 0 10 12 10 27 0 50 22
92 54 104 30 10 30 11 9 20 -13 4 -23 13 -23 19 0 33 159 -105 160 -138 0 -7
7 -15 16 -19 8 -3 20 -16 25 -29 10 -28 26 -31 32 -6 3 9 5 3 6 -15 0 -17 6
-35 11 -38 6 -3 10 -24 10 -45 0 -21 -4 -42 -10 -45 -5 -3 -10 -14 -10 -24 0
-10 -7 -24 -15 -31 -8 -7 -15 -17 -15 -23 0 -17 38 23 71 74 28 44 30 54 24
101 -22 180 -114 306 -295 410 -52 29 -127 62 -260 113 -250 97 -406 188 -520
304 -163 166 -226 387 -169 591 20 73 54 148 74 162 19 14 -1 15 -45 4z"/>
<path d="M6404 7191 c-74 -34 -134 -126 -134 -208 0 -49 28 -126 59 -164 67
-80 194 -106 287 -57 48 25 103 82 107 109 2 8 6 20 10 27 9 14 -2 102 -12
102 -4 0 -38 29 -76 65 -38 35 -73 61 -78 58 -6 -3 -7 -1 -3 6 5 7 -7 26 -27
46 -40 40 -71 44 -133 16z"/>
<path d="M6823 5330 c-13 -5 -23 -11 -23 -14 0 -7 40 6 46 15 6 10 6 10 -23
-1z"/>
</g>
</svg>
